<svg width="101" height="45" viewBox="0 0 101 45" fill="none" xmlns="http://www.w3.org/2000/svg">
<rect width="101" height="45" rx="10" fill="#FF0055"/>
<mask id="mask0_13_445" style="mask-type:luminance" maskUnits="userSpaceOnUse" x="7" y="12" width="19" height="22">
<path d="M21.848 30.934L24.5 19H8.5L11.152 30.934C11.319 31.6845 11.402 32.06 11.6765 32.28C11.951 32.5 12.335 32.5 13.1045 32.5H19.895C20.6645 32.5 21.049 32.5 21.323 32.28C21.5975 32.06 21.6805 31.685 21.848 30.934Z" fill="white" stroke="white" stroke-width="2" stroke-linecap="round" stroke-linejoin="round"/>
<path d="M18.5 32.5L19 19M14.5 32.5L14 19" stroke="black" stroke-width="2" stroke-linecap="round" stroke-linejoin="round"/>
<path d="M20.5 32.5H12.5M20.5 19H12.5M10.5 19C10.5 19 10 17.5 10.75 16.75C11.5 16 13 16.25 13 16.25C13 16.25 13 14.75 14 14.25C15 13.75 16.5 14.5 16.5 14.5C16.5 14.5 17.5 12.8215 19 13.25C20.5 13.6785 20.5 15.5 20.5 15.5C20.5 15.5 21.75 15.5 22.5 16.5C23.25 17.5 22.5 19 22.5 19" stroke="white" stroke-width="2" stroke-linecap="round" stroke-linejoin="round"/>
</mask>
<g mask="url(#mask0_13_445)">
<path d="M5 10.5H29V34.5H5V10.5Z" fill="white"/>
</g>
<path d="M45.8741 19.08C45.8741 20.2133 45.5807 21.2533 44.9941 22.2C44.4074 23.1467 43.5541 23.92 42.4341 24.52C41.3141 25.12 39.9807 25.4733 38.4341 25.58L37.5741 30.4C37.2407 32.2533 36.3341 33.18 34.8541 33.18C34.0407 33.18 33.2874 32.94 32.5941 32.46C31.9141 31.98 31.3674 31.2467 30.9541 30.26C30.5407 29.2733 30.3341 28.06 30.3341 26.62C30.3341 23.9133 30.7674 21.62 31.6341 19.74C32.5141 17.8467 33.6874 16.4333 35.1541 15.5C36.6341 14.5533 38.2607 14.08 40.0341 14.08C41.2874 14.08 42.3474 14.3 43.2141 14.74C44.0941 15.18 44.7541 15.78 45.1941 16.54C45.6474 17.2867 45.8741 18.1333 45.8741 19.08ZM38.7941 23.52C41.5274 23.1733 42.8941 21.7533 42.8941 19.26C42.8941 18.38 42.6007 17.6667 42.0141 17.12C41.4407 16.56 40.5474 16.28 39.3341 16.28C37.9607 16.28 36.7607 16.7133 35.7341 17.58C34.7207 18.4467 33.9341 19.6533 33.3741 21.2C32.8274 22.7333 32.5541 24.4867 32.5541 26.46C32.5541 27.2867 32.6341 28.02 32.7941 28.66C32.9674 29.3 33.1807 29.8 33.4341 30.16C33.7007 30.5067 33.9541 30.68 34.1941 30.68C34.5274 30.68 34.7807 30.22 34.9541 29.3L35.6141 25.52C35.0941 25.44 34.8674 25.4067 34.9341 25.42C34.5341 25.3533 34.2741 25.2333 34.1541 25.06C34.0341 24.8733 33.9741 24.64 33.9741 24.36C33.9741 24.0667 34.0541 23.8333 34.2141 23.66C34.3874 23.4867 34.6207 23.4 34.9141 23.4C35.0474 23.4 35.1474 23.4067 35.2141 23.42C35.5341 23.4733 35.7807 23.5067 35.9541 23.52C36.1274 22.48 36.3741 21.0867 36.6941 19.34C36.7741 18.8867 36.9541 18.5667 37.2341 18.38C37.5274 18.18 37.8674 18.08 38.2541 18.08C38.6941 18.08 39.0074 18.1667 39.1941 18.34C39.3941 18.5 39.4941 18.76 39.4941 19.12C39.4941 19.3333 39.4807 19.5067 39.4541 19.64L38.7941 23.52ZM47.2286 31.1C46.4019 31.1 45.7419 30.8 45.2486 30.2C44.7553 29.6 44.5086 28.8133 44.5086 27.84C44.5086 26.7733 44.7553 25.7667 45.2486 24.82C45.7419 23.86 46.3953 23.0933 47.2086 22.52C48.0353 21.9333 48.9086 21.64 49.8286 21.64C50.1219 21.64 50.3153 21.7 50.4086 21.82C50.5153 21.9267 50.6019 22.1267 50.6686 22.42C50.9486 22.3667 51.2419 22.34 51.5486 22.34C52.2019 22.34 52.5286 22.5733 52.5286 23.04C52.5286 23.32 52.4286 23.9867 52.2286 25.04C51.9219 26.5733 51.7686 27.64 51.7686 28.24C51.7686 28.44 51.8153 28.6 51.9086 28.72C52.0153 28.84 52.1486 28.9 52.3086 28.9C52.5619 28.9 52.8686 28.74 53.2286 28.42C53.5886 28.0867 54.0753 27.5533 54.6886 26.82C54.8486 26.6333 55.0286 26.54 55.2286 26.54C55.4019 26.54 55.5353 26.62 55.6286 26.78C55.7353 26.94 55.7886 27.16 55.7886 27.44C55.7886 27.9733 55.6619 28.3867 55.4086 28.68C54.8619 29.36 54.2819 29.9333 53.6686 30.4C53.0553 30.8667 52.4619 31.1 51.8886 31.1C51.4486 31.1 51.0419 30.9533 50.6686 30.66C50.3086 30.3533 50.0353 29.94 49.8486 29.42C49.1553 30.54 48.2819 31.1 47.2286 31.1ZM47.9486 29.08C48.2419 29.08 48.5219 28.9067 48.7886 28.56C49.0553 28.2133 49.2486 27.7533 49.3686 27.18L50.1086 23.5C49.5486 23.5133 49.0286 23.7267 48.5486 24.14C48.0819 24.54 47.7086 25.0733 47.4286 25.74C47.1486 26.4067 47.0086 27.1133 47.0086 27.86C47.0086 28.2733 47.0886 28.58 47.2486 28.78C47.4219 28.98 47.6553 29.08 47.9486 29.08ZM57.9831 31.1C56.6765 31.1 55.6565 30.7333 54.9231 30C54.2031 29.2533 53.8431 28.2733 53.8431 27.06C53.8431 25.98 54.0565 25.0333 54.4831 24.22C54.9098 23.4067 55.4631 22.78 56.1431 22.34C56.8231 21.9 57.5365 21.68 58.2831 21.68C59.0165 21.68 59.5831 21.9 59.9831 22.34C60.3965 22.7667 60.6031 23.32 60.6031 24C60.6031 24.56 60.4765 25.0333 60.2231 25.42C59.9831 25.8067 59.6631 26 59.2631 26C59.0098 26 58.8031 25.94 58.6431 25.82C58.4965 25.7 58.4231 25.5333 58.4231 25.32C58.4231 25.2267 58.4365 25.12 58.4631 25C58.4898 24.88 58.5098 24.7933 58.5231 24.74C58.5898 24.54 58.6231 24.3533 58.6231 24.18C58.6231 24.0067 58.5765 23.8733 58.4831 23.78C58.4031 23.6867 58.2831 23.64 58.1231 23.64C57.8165 23.64 57.5298 23.78 57.2631 24.06C56.9965 24.3267 56.7831 24.6933 56.6231 25.16C56.4631 25.6267 56.3831 26.14 56.3831 26.7C56.3831 28.2467 57.0565 29.02 58.4031 29.02C58.9498 29.02 59.5365 28.84 60.1631 28.48C60.8031 28.1067 61.4298 27.5533 62.0431 26.82C62.2031 26.6333 62.3831 26.54 62.5831 26.54C62.7565 26.54 62.8898 26.62 62.9831 26.78C63.0898 26.94 63.1431 27.16 63.1431 27.44C63.1431 27.9467 63.0165 28.36 62.7631 28.68C62.1365 29.4533 61.3831 30.0533 60.5031 30.48C59.6365 30.8933 58.7965 31.1 57.9831 31.1ZM64.1464 20.36C63.5864 20.36 63.1664 20.2333 62.8864 19.98C62.6064 19.7133 62.4664 19.3467 62.4664 18.88C62.4664 18.4133 62.6464 18.0267 63.0064 17.72C63.3797 17.4 63.8397 17.24 64.3864 17.24C64.8797 17.24 65.2797 17.36 65.5864 17.6C65.8931 17.84 66.0464 18.18 66.0464 18.62C66.0464 19.1533 65.8731 19.58 65.5264 19.9C65.1797 20.2067 64.7197 20.36 64.1464 20.36ZM63.9864 31.1C63.1197 31.1 62.4864 30.7933 62.0864 30.18C61.6997 29.5667 61.5064 28.7533 61.5064 27.74C61.5064 27.14 61.5797 26.3733 61.7264 25.44C61.8864 24.4933 62.0864 23.6133 62.3264 22.8C62.4464 22.3733 62.6064 22.08 62.8064 21.92C63.0064 21.76 63.3264 21.68 63.7664 21.68C64.4464 21.68 64.7864 21.9067 64.7864 22.36C64.7864 22.6933 64.6597 23.4667 64.4064 24.68C64.0864 26.1467 63.9264 27.14 63.9264 27.66C63.9264 28.06 63.9797 28.3667 64.0864 28.58C64.1931 28.7933 64.3731 28.9 64.6264 28.9C64.8664 28.9 65.1664 28.7333 65.5264 28.4C65.8864 28.0667 66.3664 27.54 66.9664 26.82C67.1264 26.6333 67.3064 26.54 67.5064 26.54C67.6797 26.54 67.8131 26.62 67.9064 26.78C68.0131 26.94 68.0664 27.16 68.0664 27.44C68.0664 27.9733 67.9397 28.3867 67.6864 28.68C66.3664 30.2933 65.1331 31.1 63.9864 31.1ZM81.073 26.54C81.2463 26.54 81.3796 26.62 81.473 26.78C81.5796 26.94 81.633 27.16 81.633 27.44C81.633 27.9733 81.5063 28.3867 81.253 28.68C80.6796 29.3867 80.053 29.9667 79.373 30.42C78.7063 30.8733 77.9463 31.1 77.093 31.1C76.1863 31.1 75.4596 30.7733 74.913 30.12C74.3663 29.4533 73.993 28.5533 73.793 27.42C73.3396 27.54 72.8596 27.6 72.353 27.6C71.913 27.6 71.4263 27.5667 70.893 27.5C71.0796 28.34 71.233 29.28 71.353 30.32C71.473 31.36 71.533 32.2133 71.533 32.88C71.533 34.32 71.2996 35.42 70.833 36.18C70.3663 36.94 69.753 37.32 68.993 37.32C68.033 37.32 67.3463 36.64 66.933 35.28C66.533 33.92 66.333 31.8667 66.333 29.12C66.333 26.56 66.6063 23.9667 67.153 21.34C67.713 18.7 68.473 16.52 69.433 14.8C70.4063 13.0667 71.473 12.2 72.633 12.2C73.2596 12.2 73.7463 12.48 74.093 13.04C74.453 13.6 74.633 14.3533 74.633 15.3C74.633 18.4333 72.7596 21.8467 69.013 25.54C68.8796 26.8467 68.813 27.9933 68.813 28.98C68.813 30.3533 68.8596 31.76 68.953 33.2C69.0463 34.6533 69.1996 35.38 69.413 35.38C69.813 35.38 70.013 34.6867 70.013 33.3C70.013 32.26 69.9396 31.2533 69.793 30.28C69.6596 29.3067 69.473 28.28 69.233 27.2C69.2196 27.0267 69.273 26.8067 69.393 26.54C69.5263 26.2733 69.6863 26.04 69.873 25.84C70.0596 25.64 70.2263 25.54 70.373 25.54C70.5463 25.54 70.8196 25.5533 71.193 25.58C71.6196 25.6067 71.9396 25.62 72.153 25.62C72.633 25.62 73.1263 25.5533 73.633 25.42V25.36C73.633 23.7333 73.8396 21.88 74.253 19.8C74.6796 17.72 75.2996 15.9333 76.113 14.44C76.9396 12.9467 77.9196 12.2 79.053 12.2C79.693 12.2 80.193 12.5 80.553 13.1C80.9263 13.6867 81.113 14.5333 81.113 15.64C81.113 16.72 80.913 17.9467 80.513 19.32C80.113 20.6933 79.533 22.0133 78.773 23.28C78.013 24.5333 77.1196 25.54 76.093 26.3C76.1463 27.2467 76.2863 27.92 76.513 28.32C76.7396 28.7067 77.073 28.9 77.513 28.9C78.0596 28.9 78.5396 28.7467 78.953 28.44C79.3663 28.12 79.893 27.58 80.533 26.82C80.693 26.6333 80.873 26.54 81.073 26.54ZM72.213 14.18C71.973 14.18 71.673 14.5867 71.313 15.4C70.9663 16.2133 70.6196 17.2933 70.273 18.64C69.9263 19.9733 69.6263 21.3867 69.373 22.88C70.4396 21.6667 71.2596 20.4067 71.833 19.1C72.4063 17.78 72.6996 16.5467 72.713 15.4C72.713 14.5867 72.5463 14.18 72.213 14.18ZM78.613 14.18C78.333 14.18 78.0063 14.68 77.633 15.68C77.273 16.6667 76.9463 17.92 76.653 19.44C76.3596 20.96 76.1796 22.4467 76.113 23.9C76.7796 23.22 77.3463 22.3933 77.813 21.42C78.2796 20.4333 78.6196 19.44 78.833 18.44C79.0596 17.4267 79.173 16.5133 79.173 15.7C79.173 14.6867 78.9863 14.18 78.613 14.18ZM82.6425 20.36C82.0825 20.36 81.6625 20.2333 81.3825 19.98C81.1025 19.7133 80.9625 19.3467 80.9625 18.88C80.9625 18.4133 81.1425 18.0267 81.5025 17.72C81.8758 17.4 82.3358 17.24 82.8825 17.24C83.3758 17.24 83.7758 17.36 84.0825 17.6C84.3892 17.84 84.5425 18.18 84.5425 18.62C84.5425 19.1533 84.3692 19.58 84.0225 19.9C83.6758 20.2067 83.2158 20.36 82.6425 20.36ZM82.4825 31.1C81.6158 31.1 80.9825 30.7933 80.5825 30.18C80.1958 29.5667 80.0025 28.7533 80.0025 27.74C80.0025 27.14 80.0758 26.3733 80.2225 25.44C80.3825 24.4933 80.5825 23.6133 80.8225 22.8C80.9425 22.3733 81.1025 22.08 81.3025 21.92C81.5025 21.76 81.8225 21.68 82.2625 21.68C82.9425 21.68 83.2825 21.9067 83.2825 22.36C83.2825 22.6933 83.1558 23.4667 82.9025 24.68C82.5825 26.1467 82.4225 27.14 82.4225 27.66C82.4225 28.06 82.4758 28.3667 82.5825 28.58C82.6892 28.7933 82.8692 28.9 83.1225 28.9C83.3625 28.9 83.6625 28.7333 84.0225 28.4C84.3825 28.0667 84.8625 27.54 85.4625 26.82C85.6225 26.6333 85.8025 26.54 86.0025 26.54C86.1758 26.54 86.3092 26.62 86.4025 26.78C86.5092 26.94 86.5625 27.16 86.5625 27.44C86.5625 27.9733 86.4358 28.3867 86.1825 28.68C84.8625 30.2933 83.6292 31.1 82.4825 31.1ZM95.4044 27.14C95.5777 27.14 95.711 27.22 95.8044 27.38C95.911 27.54 95.9644 27.76 95.9644 28.04C95.9644 28.52 95.851 28.9333 95.6244 29.28C94.8377 30.4933 93.7177 31.1 92.2644 31.1C91.6377 31.1 91.0777 30.98 90.5844 30.74C90.1044 30.4867 89.711 30.1267 89.4044 29.66C88.631 30.6067 87.731 31.08 86.7044 31.08C85.971 31.08 85.391 30.8667 84.9644 30.44C84.5377 30.0133 84.3244 29.4467 84.3244 28.74C84.3244 28.0733 84.4777 27.5333 84.7844 27.12C85.091 26.7067 85.5244 26.5 86.0844 26.5C86.5644 26.5 86.8044 26.68 86.8044 27.04C86.8044 27.1467 86.791 27.3333 86.7644 27.6L86.7044 28.36C86.7044 28.76 86.8777 28.96 87.2244 28.96C87.4777 28.96 87.7177 28.8133 87.9444 28.52C88.1844 28.2133 88.3777 27.8 88.5244 27.28C88.6844 26.76 88.7644 26.1867 88.7644 25.56C88.7644 25.08 88.7044 24.68 88.5844 24.36C88.4644 24.0267 88.3177 23.86 88.1444 23.86C87.9977 23.86 87.891 23.9 87.8244 23.98C87.7577 24.0467 87.691 24.1667 87.6244 24.34C87.5444 24.5533 87.4377 24.7267 87.3044 24.86C87.171 24.98 86.9377 25.04 86.6044 25.04C86.311 25.04 86.0777 24.94 85.9044 24.74C85.731 24.5267 85.6444 24.2067 85.6444 23.78C85.6444 23.1 85.851 22.5667 86.2644 22.18C86.6777 21.7933 87.211 21.6 87.8644 21.6C88.4244 21.6 88.931 21.74 89.3844 22.02C89.8377 22.2867 90.1844 22.68 90.4244 23.2C90.8244 22.6667 91.271 22.2667 91.7644 22C92.271 21.7333 92.7644 21.6 93.2444 21.6C93.7644 21.6 94.1577 21.72 94.4244 21.96C94.7044 22.2 94.8444 22.5867 94.8444 23.12C94.8444 23.72 94.731 24.1933 94.5044 24.54C94.2777 24.8733 94.0044 25.04 93.6844 25.04C93.391 25.04 93.191 24.98 93.0844 24.86C92.9777 24.74 92.8977 24.5667 92.8444 24.34C92.8177 24.18 92.7777 24.06 92.7244 23.98C92.671 23.9 92.5777 23.86 92.4444 23.86C92.2844 23.86 92.111 24.0133 91.9244 24.32C91.751 24.6133 91.5977 25.0067 91.4644 25.5C91.3444 25.9933 91.2844 26.5067 91.2844 27.04C91.2844 27.64 91.4177 28.12 91.6844 28.48C91.9644 28.84 92.2977 29.02 92.6844 29.02C93.4177 29.02 94.1444 28.4933 94.8644 27.44C94.9977 27.24 95.1777 27.14 95.4044 27.14Z" fill="white"/>
</svg>
